<?xml version="1.0" encoding="UTF-8"?>
<!DOCTYPE svg PUBLIC "-//W3C//DTD SVG 1.1//EN" "http://www.w3.org/Graphics/SVG/1.1/DTD/svg11.dtd">
<!-- Creator: CorelDRAW 2019 (64-Bit) -->
<svg xmlns="http://www.w3.org/2000/svg" xml:space="preserve" width="1354px" height="240px" version="1.1" style="shape-rendering:geometricPrecision; text-rendering:geometricPrecision; image-rendering:optimizeQuality; fill-rule:evenodd; clip-rule:evenodd"
viewBox="0 0 1354 239.92"
 xmlns:xlink="http://www.w3.org/1999/xlink"
 xmlns:xodm="http://www.corel.com/coreldraw/odm/2003">
 <defs>
  <style type="text/css">
   <![CDATA[
    .fil0 {fill:#004F90;fill-rule:nonzero}
   ]]>
  </style>
 </defs>
 <g id="Layer_x0020_1">
  <metadata id="CorelCorpID_0Corel-Layer"/>
  <path class="fil0" d="M168.12 159.06c0,-21.73 -14.92,-36.19 -33.06,-44.96 -11.84,2.58 -25.73,4.08 -38.73,4.19l3.27 -8.1c2.95,-0.1 5.18,-0.28 7.58,-0.42l0 -54.34 23.42 0 0 50.83c19.63,-5.8 27.85,-17.44 27.85,-30.97 0,-17.34 -13.14,-25.61 -27.91,-25.61l-38.87 0.01 0 123.39c0,13.06 7.85,15.8 15.51,15.94l0 -64.18c8.78,-0.31 18.22,-1.56 23.42,-2.77l0 66.95c18.72,-0.02 37.52,-11.43 37.52,-29.96zm-17.3 -49.56l0 0c12.54,3.97 41.97,17.39 41.97,45.16 0,27.39 -25.81,43.7 -56.45,43.7l-89.2 0 0.09 -7.1c16.18,0 20.97,-2.14 20.97,-18.66l0 -104.51c0,-18.4 -7.26,-19.55 -21,-19.55l0 -6.61c2.57,-0.06 34.97,-0.02 59.98,0 -0.51,-12.96 -7.61,-13.9 -17.13,-13.9l0 -6.04 57.53 0 0 6.56c-9.27,0 -16.47,0.42 -16.98,13.38l5.74 0c12.94,0 44.71,4.45 44.77,30.61 0.04,18.36 -12.35,30.04 -30.29,36.96zm-60.77 108.48l0 0c9.52,0 16.62,-0.93 17.13,-13.87l23.42 0c0.51,12.94 7.71,13.36 16.98,13.36l0 6.56 -57.53 0 0 -6.05zm149.88 -98.02l0 0c0,-66.26 -53.72,-119.96 -119.96,-119.96 -66.26,0 -119.97,53.7 -119.97,119.96 0,66.24 53.71,119.96 119.97,119.96 66.24,0 119.96,-53.72 119.96,-119.96z"/>
  <path class="fil0" d="M879.21 118.57c0,-12.91 -5.4,-24.08 -14.05,-30.03 -6.17,-4.24 -15.59,-6.55 -25.7,-6.55 -4.8,0 -7.14,0.17 -11.41,0.49l0 72.27c0,2.5 0.57,3.25 2.56,3.55 2.35,0.43 5.25,0.54 8.22,0.54 11.16,0 20.31,-2.75 27.32,-8.69 8.52,-7.14 13.06,-18.27 13.06,-31.58zm12.31 -0.82l0 0c0,16.99 -6.11,30.89 -17.97,40.27 -8.99,7.07 -20.38,10.35 -37.01,10.35 -3.4,0 -9.64,-0.28 -15.26,-0.28 -5.51,0 -10.17,0.12 -15.48,0.2l0 -2.82c10.8,0 10.8,-2.2 10.8,-33.03l0 -26.03c0,-29.18 0,-30.9 -10.32,-30.9l0 -2.67c4.2,0 10.95,-0.16 15.69,-0.16 5.33,0 9.35,-0.32 17.22,-0.32 15.34,0 24.25,2.31 32.63,7.13 12.28,7.03 19.7,21.14 19.7,38.26zm-103.96 -11.07l0 0 0 62.55 -2.21 0c-22.42,-26.27 -36.14,-42.28 -44.84,-52.34 -5.78,-6.78 -10.21,-12.14 -16.5,-20.23 -0.23,4.71 -0.21,9.55 -0.21,35.59 0,31.02 0,33.28 10.51,33.28l0 2.79c-5.9,-0.11 -11.3,-0.23 -16.38,-0.23 -5.62,0 -9.5,0.12 -14.68,0.23l0 -2.76c10.61,0 10.61,-2.29 10.61,-33.31l0 -60.27 2.21 0c22.57,26.84 36.47,43.26 45.22,53.48 5.79,6.7 9.55,11.33 16.11,19.78 0.24,-4.81 0.21,-9.93 0.21,-38.56 0,-29.19 0,-31.47 -10.8,-31.47l0 -2.77c4.95,0.12 10.23,0.24 15.15,0.24 5.28,0 10.07,-0.12 14.91,-0.24l0 2.77c-9.31,0.09 -9.31,2.28 -9.31,31.47zm507.05 24.88l0 0 26.81 0 -0.12 -0.45c-11.4,-31.54 -12.35,-33.99 -12.85,-36.22 -0.72,2.19 -1.68,4.65 -13.72,36.22l-0.12 0.45zm30.12 8.9l0 0 -33.37 0c-9.19,23.11 -9.83,25.01 0.89,25.01l0 2.85c-4.38,-0.11 -9.86,-0.23 -15.91,-0.23 -6.26,0 -9.51,0.12 -12.37,0.23 -4.47,-0.11 -9.18,-0.23 -15.32,-0.23 -6.48,0 -11.39,0.12 -16.49,0.23l0 -2.85c10.73,0 10.73,-1.93 10.73,-32.94l0 -26.12c0,-29.18 0,-31.11 -10.31,-31.11l0 -2.86c4.79,0.12 10.11,0.24 15.74,0.24 6.07,0 12.34,-0.12 15.95,-0.24l0 2.86c-9.9,0 -9.93,1.9 -9.93,31.08l0 26.01c0,29.54 0.21,33.05 9.36,33.05 6.32,0 7.89,-3.45 19.74,-33.05l24.53 -61.35 2.36 0 23.63 61.35c12.05,31.15 13,33.08 20.04,33.08l0 2.85c-2.5,-0.11 -6.98,-0.23 -13.41,-0.23 -6.51,0 -13,0.12 -16.77,0.23l0 -2.85c10.51,0 9.64,-1.84 0.91,-25.01zm-101.96 2.93l0 0c0,14.58 -10.56,25.96 -29.64,25.96 -7.77,0 -15.92,-2.08 -20.24,-4.15 0.54,-5.57 0.86,-13.59 0.98,-21.84l2.78 0c0.18,6.41 1.9,10.55 4.8,13.05 2.8,2.43 6.89,3.43 11.71,3.43 10.53,0 17.69,-5.84 17.69,-14.84 0,-5.69 -2.12,-10.2 -7.49,-14.46 -3.53,-2.79 -7.46,-5.47 -12.67,-8.88 -10.21,-6.74 -15.93,-14.39 -15.93,-25.06 0,-14.01 11.27,-24.87 27.88,-24.87 5.81,0 12.13,1.08 16.61,2.59 -0.48,7.07 -0.66,14.5 -0.75,20.98l-2.77 0c0.13,-5.82 -0.99,-8.91 -3.72,-11.16 -2.12,-1.81 -5.74,-2.92 -9.85,-2.92 -8.91,0 -15.7,5.39 -15.7,14.18 0,4.88 2.31,9.27 6.46,12.9 3.19,2.66 7.07,5.54 12.97,9.39 9.5,6.25 16.88,13.48 16.88,25.7zm-111.17 -10.95l0 0 0 -26.03c0,-29.18 0,-31.11 -9.02,-31.11l0 -2.86c5.58,0.09 13.51,0.24 24.08,0.24 11.43,0 23.53,-0.12 31.83,-0.24 -0.51,6.69 -0.87,13.88 -0.93,21.15l-2.7 0c-0.4,-10 -2.46,-11.86 -12.53,-11.86l-19.26 0 0 32.88 14.14 0c10.87,0 13.89,-0.21 14.69,-6.27l2.59 0c-0.26,3.22 -0.48,6.94 -0.48,10.51 0,4.19 0.22,8.23 0.48,12.17l-2.56 0c-0.74,-6.89 -3.61,-7.27 -14.38,-7.27l-14.48 0 0 29.8c0,4.78 0.24,5.05 4.92,5.08 5.97,0.03 11.69,0.08 18.4,0 6.83,-0.12 10.23,-0.96 11.29,-10.84l2.67 0c-0.32,5.8 -0.79,13.52 -0.79,20.53 -8.61,-0.11 -20.77,-0.23 -32.04,-0.23 -11.28,0 -19.8,0.12 -25.55,0.23l0 -2.85c9.63,0 9.63,-1.93 9.63,-33.03zm-125.82 -12.78l0 0c0,-21.94 -16.16,-38.24 -36.81,-38.24 -20.86,0 -36.89,16.3 -36.89,39.03 0,23.44 16.25,39.24 36.65,39.24 20.61,0 37.05,-15.55 37.05,-40.03zm12.62 -0.7l0 0c0,28.86 -20.93,50.66 -50.33,50.66 -27.06,0 -48.75,-20.62 -48.75,-48.65 0,-29.38 22.01,-49.47 50.68,-49.47 27.41,0 48.4,19.61 48.4,47.46zm-315.33 -12.58l0 0 0 26.01c0,31.12 0,33.08 10.96,33.08l0 2.85c-4.47,-0.11 -10.5,-0.23 -16.66,-0.23 -6.49,0 -11.38,0.12 -16.47,0.23l0 -2.85c10.71,0 10.71,-1.93 10.71,-32.94l0 -26.12c0,-29.18 0,-31.11 -10.31,-31.11l0 -2.86c4.79,0.12 10.11,0.24 15.76,0.24 6.06,0 12.33,-0.12 15.95,-0.24l0 2.86c-9.91,0 -9.94,1.9 -9.94,31.08zm-135.59 26.06l0 0 0 -26.03c0,-29.18 0,-31.11 -10.31,-31.11l0 -2.86c4.45,0.12 9.92,0.24 15.95,0.24 6.02,0 10.92,-0.12 15.65,-0.24l0 2.86c-9.63,0 -9.84,1.96 -9.84,29.82l0 11.09 19.71 -22.87c13.51,-15.73 14.26,-18.04 5.57,-18.04l0 -2.86c6.09,0.12 10.32,0.24 15.42,0.24 5.2,0 10.34,-0.12 13.83,-0.24l0 2.86c-7.18,0 -8.3,2.21 -22.7,18.4l-21.25 24.41 25.49 29.12c14.18,16.31 16.78,18.24 23.29,18.24l0 2.85c-3.6,-0.11 -8.73,-0.23 -14.95,-0.23 -6.07,0 -11.01,0.12 -17.26,0.23l0 -2.85c10.33,0 7.7,-2.68 -4.78,-17.58l-22.13 -26.05 -0.24 12.09c0,29.64 0.02,31.54 10.84,31.54l0 2.85c-5.54,-0.11 -9.93,-0.23 -16.02,-0.23 -6.21,0 -12.23,0.12 -16.98,0.23l0 -2.85c10.71,0 10.71,-1.93 10.71,-33.03zm-29.86 -25.76l0 0 0 62.55 -2.22 0c-22.42,-26.27 -36.14,-42.28 -44.83,-52.34 -5.77,-6.78 -10.21,-12.14 -16.49,-20.23 -0.24,4.71 -0.21,9.55 -0.21,35.59 0,31.02 0,33.28 10.5,33.28l0 2.79c-5.91,-0.11 -11.29,-0.23 -16.38,-0.23 -5.61,0 -7.35,0.12 -12.51,0.23 -2.52,-0.11 -4.84,-0.23 -11.27,-0.23 -6.5,0 -12.99,0.12 -16.78,0.23l0 -2.85c10.52,0 9.64,-1.84 0.92,-25.01l-33.37 0c-9.19,23.11 -9.83,25.01 0.88,25.01l0 2.85c-4.38,-0.11 -9.87,-0.23 -15.91,-0.23 -6.26,0 -10.82,0.12 -13.69,0.23l0 -2.85c7.24,0 8.29,-1.87 20.82,-33.08l24.51 -61.35 2.36 0 23.62 61.35c11.34,29.26 12.87,32.73 18.85,33.05 7.53,0.39 7.5,-5.54 7.5,-33.19l0 -60.27 2.23 0c22.56,26.84 36.48,43.26 45.2,53.48 5.79,6.7 9.57,11.33 16.11,19.78 0.25,-4.81 0.22,-9.93 0.22,-38.56 0,-29.19 0,-31.47 -10.8,-31.47l0 -2.77c4.94,0.12 10.21,0.24 15.14,0.24 5.28,0 10.08,-0.12 14.91,-0.24l0 2.77c-9.31,0.09 -9.31,2.28 -9.31,31.47zm-139.39 24.88l0 0 26.81 0 -0.12 -0.45c-11.4,-31.54 -12.36,-33.99 -12.85,-36.22 -0.73,2.19 -1.7,4.65 -13.71,36.22l-0.13 0.45zm-40.38 9.71l0 0c0,-9.62 -6.94,-14.64 -12.72,-16.27 -3.01,-0.87 -6.92,-1.41 -11.15,-1.41 -1.36,0 -3.62,0.04 -4.85,0.16l0 29.92c0,3.67 0.17,4.12 1.66,4.69 1.6,0.58 4.28,0.67 6.24,0.67 3.94,0 8.47,-1.15 10.87,-2.29 5.74,-2.45 9.95,-7.37 9.95,-15.47zm-4.1 -43.58l0 0c0,-10.85 -7.32,-16.27 -17.88,-16.27 -3.29,0 -5.42,0.25 -6.74,0.37l0 32.87c0.95,0.05 2.37,0.12 3.68,0.12 2.18,0 5.71,-0.19 8.58,-1.08 5.78,-1.7 12.36,-6.33 12.36,-16.01zm15.88 43.97l0 0c0,9.03 -4,16.13 -9.84,20.36 -6.17,4.42 -13.75,6.43 -24.59,6.43 -4.59,0 -9.59,-0.36 -13.92,-0.36 -3.04,0 -7.92,0.12 -13.48,0.2l0 -2.82c10.34,0 10.34,-1.93 10.34,-33.03l0 -26.03c0,-29.18 0,-31.11 -9.23,-31.11l0 -2.57c3.82,0.03 9.79,-0.05 13.57,-0.05 3.21,0 7.82,-0.27 12.99,-0.27 5.15,0 10.18,0.6 13.69,1.63 8.55,2.39 16.31,9.61 16.31,22.42 0,11.71 -8.82,20.41 -17.57,21.86 12.15,1.61 21.73,10.82 21.73,23.34zm732.96 -34.98l0 0 0 62.55 -2.23 0c-22.43,-26.27 -36.14,-42.28 -44.82,-52.34 -5.78,-6.78 -10.23,-12.14 -16.51,-20.23 -0.24,4.71 -0.21,9.55 -0.21,35.59 0,31.02 0,33.28 10.5,33.28l0 2.79c-5.91,-0.11 -11.28,-0.23 -16.37,-0.23 -5.63,0 -9.51,0.12 -14.67,0.23l0 -2.76c10.61,0 10.61,-2.29 10.61,-33.31l0 -60.27 2.21 0c22.57,26.84 36.48,43.26 45.22,53.48 5.78,6.7 9.57,11.33 16.1,19.78 0.26,-4.81 0.23,-9.93 0.23,-38.56 0,-29.19 0,-31.47 -10.81,-31.47l0 -2.77c4.95,0.12 10.2,0.24 15.16,0.24 5.25,0 10.05,-0.12 14.88,-0.24l0 2.77c-9.29,0.09 -9.29,2.28 -9.29,31.47z"/>
 </g>
</svg>
